# xmcd
#
# Track frame offsets: 
#        150
#        21543
#        42236
#        56189
#        72860
#        91538
#        117462
#        137640
#        166609
#        180898
#        201160
#        218601
#        236000
#
# Disc length: 3448 seconds
#
# Revision: 0
# Processed by: cddbd v1.5.2PL0 Copyright (c) Steve Scherf et al.
# Submitted via: ExactAudioCopy v1.0b3
#
DISCID=ad0d760d
DTITLE=Too Far Gone - 20 år
DYEAR=2013
DGENRE=Folk/Rock
TTITLE0=20 år
TTITLE1=Elg - Queen of the night
TTITLE2=Ottar "Big Hand" Johansen - Et håp
TTITLE3=Geir Rune Engan - Tenn et håp
TTITLE4=Liza Jane
TTITLE5=Hans Bollandsås - Liten
TTITLE6=Petter Wavold and bandet - Korr e du no
TTITLE7=Gammel mann
TTITLE8=Becca - Asbjørn Per Moen
TTITLE9=Elg og Martine - Liv ætte dauen
TTITLE10=Zetor'n
TTITLE11=Martine - Det e slutt
TTITLE12=Gal ætte dæ
EXTD=
EXTT0=
EXTT1=
EXTT2=
EXTT3=
EXTT4=
EXTT5=
EXTT6=
EXTT7=
EXTT8=
EXTT9=
EXTT10=
EXTT11=
EXTT12=
PLAYORDER=
